<?xml version="1.0" encoding="utf-8"?>
<!-- Generator: Adobe Illustrator 27.2.0, SVG Export Plug-In . SVG Version: 6.00 Build 0)  -->
<svg version="1.1" id="Layer_1" xmlns="http://www.w3.org/2000/svg" xmlns:xlink="http://www.w3.org/1999/xlink" x="0px" y="0px"
	 viewBox="0 0 4096 4096" style="enable-background:new 0 0 4096 4096;" xml:space="preserve">
<g>
	<path style="fill-rule:evenodd;clip-rule:evenodd;fill:#FFF080;" d="M959.2,1440.3l196.2,42.5l161.8,35L1206,1395.2l-134.9-148.7
		l185.8,75.9l153.3,62.6l-88.2-140.1l-107-169.8l169.8,107l140.1,88.3l-62.6-153.3l-75.9-185.8l148.6,134.9l122.7,111.3l-35.1-161.9
		l-42.5-196.2L1703.1,978l101.5,130.9l-6.4-165.5l-7.8-200.6l93.6,177.6l77.2,146.5l22.5-164.1l27.1-198.9l61.3,191.1l50.6,157.7
		l50.6-157.7l61.3-191.1l27.2,198.9l22.4,164.1l77.2-146.5l93.6-177.6l-7.8,200.6l-6.4,165.5L2542.4,978l123-158.6l-42.5,196.2
		l-35.1,161.9l122.6-111.3l148.7-134.9l-75.9,185.8l-62.6,153.3l140.1-88.3l169.8-107l-107,169.8l-88.3,140.1l153.3-62.6l185.8-75.9
		l-134.8,148.7l-111.3,122.7l161.9-35l196.2-42.5l-158.6,123l-130.9,101.5l165.5-6.4l200.6-7.8l-177.6,93.5l-146.5,77.2l164.1,22.4
		l198.9,27.2l-191.1,61.3l-157.7,50.6l157.7,50.6l191.1,61.3l-198.9,27.2l-164.1,22.4l146.5,77.2l177.6,93.5l-200.6-7.8l-165.5-6.4
		l130.9,101.5l158.6,123l-196.2-42.5l-161.9-35l111.3,122.7l134.8,148.7l-185.8-75.9l-153.3-62.6l88.3,140.1l107,169.8l-169.8-107
		l-140.1-88.3l62.6,153.3l75.9,185.8l-148.7-134.9l-122.6-111.3l35.1,161.9l42.5,196.2l-123-158.6l-101.4-130.9l6.4,165.5l7.8,200.6
		l-93.6-177.6l-77.2-146.5l-22.4,164.1l-27.1,198.9l-61.3-191.1l-50.6-157.7l-50.6,157.7l-61.3,191.1l-27.1-198.9l-22.5-164.1
		l-77.2,146.5l-93.6,177.6l7.8-200.6l6.4-165.5l-101.5,130.9l-122.9,158.6l42.5-196.2l35.1-161.9L1535,2899.7l-148.6,134.9
		l75.9-185.8l62.6-153.3l-140.1,88.3l-169.8,107l107-169.8l88.2-140.1l-153.3,62.6l-185.8,75.9l134.9-148.7l111.2-122.7l-161.8,35
		l-196.2,42.5l158.6-123l130.9-101.5l-165.5,6.4l-200.6,7.8l177.6-93.5l146.5-77.2l-164.1-22.4l-198.8-27.2l191.1-61.3l157.7-50.6
		l-157.7-50.6L843.8,1871l198.8-27.2l164.1-22.4l-146.5-77.2l-177.6-93.6l200.6,7.8l165.5,6.4l-130.9-101.5L959.2,1440.3
		L959.2,1440.3z M2122.8,1087.1l-77.8,6.8l-77.8,6.8l-75.4,20.2l-75.4,20.2l-70.7,33l-70.8,33l-63.9,44.8l-64,44.8l-55.2,55.2
		l-55.3,55.2l-44.7,64L1347,1535l-33,70.8l-33,70.8l-20.2,75.4l-20.2,75.4l-6.8,77.8l-6.8,77.8l6.8,77.8l6.8,77.8l20.2,75.4
		l20.2,75.4l33,70.7l33,70.8l44.8,63.9l44.7,64l55.2,55.2l55.2,55.2l64,44.8l63.9,44.8l70.8,33l70.7,33l75.4,20.2l75.4,20.2
		l77.8,6.8l77.8,6.8l77.7-6.8l77.8-6.8l75.4-20.2l75.4-20.2l70.7-33l70.7-33l64-44.8l64-44.8l55.2-55.2l55.2-55.2l44.8-64l44.8-63.9
		l33-70.8l33-70.8l20.2-75.4l20.2-75.4l6.8-77.8l6.8-77.8l-6.8-77.8l-6.8-77.8l-20.2-75.4l-20.2-75.4l-33-70.7l-33-70.7l-44.8-64
		l-44.8-64l-55.2-55.2l-55.2-55.2l-64-44.8l-63.9-44.8l-70.8-33l-70.7-33l-75.4-20.2l-75.4-20.2l-77.8-6.8L2122.8,1087.1z"/>
	<path style="fill-rule:evenodd;clip-rule:evenodd;fill:#FFCC02;" d="M908.8,1282l209.4,64.9l172.7,53.5l-109.4-144l-132.6-174.5
		l194.9,100.2l160.8,82.7l-82.7-160.8L1221.7,909l174.6,132.6l144,109.4l-53.6-172.7l-64.9-209.3l148.9,160.8l122.8,132.7
		L1670.8,883l-27.5-217.4L1762,849.9l97.9,152l8.8-180.6l10.7-218.9l84.9,202.1l70,166.7l40-176.3l48.5-213.7l48.5,213.7l40,176.3
		l70-166.7l84.9-202.1l10.6,218.9l8.8,180.6l97.9-152l118.7-184.3L2574.7,883l-22.7,179.4l122.8-132.7l148.9-160.8l-64.8,209.3
		l-53.6,172.7l144-109.4L3023.8,909l-100.2,194.9l-82.7,160.8l160.9-82.7l194.9-100.2l-132.6,174.5l-109.4,144l172.7-53.5
		l209.3-64.9l-160.8,148.9l-132.7,122.8l179.4-22.7l217.4-27.5l-184.3,118.7l-152.1,97.9l180.6,8.8l218.9,10.6l-202,84.9l-166.7,70
		l176.3,40l213.7,48.5l-213.7,48.5l-176.3,40l166.7,70l202,84.9l-218.9,10.7l-180.6,8.8l152.1,97.9l184.3,118.7l-217.4-27.5
		l-179.4-22.7l132.7,122.8l160.8,148.9l-209.3-64.9l-172.7-53.5l109.4,144l132.6,174.5l-194.9-100.2l-160.8-82.7l82.7,160.8
		l100.2,194.9l-174.5-132.5l-144-109.4l53.6,172.7l64.8,209.3L2674.8,3036L2552,2903.3l22.7,179.4l27.5,217.4l-118.7-184.2
		l-97.9-152.1l-8.8,180.6l-10.6,218.9l-84.9-202.1l-70-166.7l-40,176.4l-48.5,213.7l-48.5-213.7l-40-176.4l-70,166.7l-84.9,202.1
		l-10.7-218.9l-8.8-180.6l-97.9,152.1l-118.7,184.2l27.5-217.4l22.8-179.4L1570.7,3036l-148.9,160.9l64.9-209.3l53.6-172.7
		l-144,109.4l-174.6,132.5l100.2-194.9l82.7-160.8l-160.8,82.7l-194.9,100.2l132.6-174.5l109.4-144l-172.7,53.5l-209.4,64.9
		l160.8-148.9l132.7-122.8l-179.4,22.7l-217.4,27.5l184.3-118.7l152-97.9l-180.6-8.8l-218.9-10.7l202.1-84.9l166.7-70l-176.3-40
		l-213.7-48.5l213.7-48.5l176.3-40l-166.7-70l-202.1-84.9l218.9-10.6l180.6-8.8l-152-97.9l-184.3-118.7l217.4,27.5l179.4,22.7
		l-132.7-122.8L908.8,1282L908.8,1282z M2208,1008.5h-85.2h-85.3l-84,14.8l-83.9,14.8l-80.1,29.2l-80.1,29.1l-73.8,42.6l-73.9,42.7
		l-65.3,54.8l-65.3,54.8l-54.8,65.3l-54.8,65.3l-42.6,73.8l-42.6,73.8l-29.1,80.1l-29.1,80.1l-14.8,83.9l-14.8,84v85.3v85.2l14.8,84
		l14.8,83.9l29.1,80.1l29.1,80.1l42.6,73.8l42.6,73.8l54.8,65.3l54.8,65.3l65.3,54.8l65.3,54.8l73.9,42.6l73.8,42.6l80.1,29.1
		l80.1,29.2l83.9,14.8l84,14.8h85.3h85.2l83.9-14.8l84-14.8l80.1-29.2l80.1-29.1l73.8-42.6l73.8-42.6l65.3-54.8l65.3-54.8l54.8-65.3
		l54.8-65.3l42.6-73.8l42.6-73.8l29.1-80.1l29.1-80.1l14.8-83.9l14.8-84v-85.2v-85.3l-14.8-84l-14.8-83.9l-29.1-80.1l-29.1-80.1
		l-42.6-73.8l-42.6-73.8l-54.8-65.3l-54.8-65.3l-65.3-54.8l-65.3-54.8l-73.8-42.6l-73.8-42.6l-80.1-29.1l-80.1-29.2l-84-14.8
		L2208,1008.5z"/>
	<path style="fill-rule:evenodd;clip-rule:evenodd;fill:#F2AA1D;" d="M2122.8,917.1c588.6,0,1065.7,477.2,1065.7,1065.7
		c0,588.6-477.1,1065.8-1065.7,1065.8c-588.6,0-1065.7-477.2-1065.7-1065.8C1057,1394.3,1534.2,917.1,2122.8,917.1z"/>
	<path style="fill-rule:evenodd;clip-rule:evenodd;fill:#FCB912;" d="M1990.5,1000c381.2,0,627.9,309,551,690.2
		c-76.9,381.2-448.1,690.2-829.3,690.2c-381.2,0-627.9-309-551-690.2C1238,1309,1609.3,1000,1990.5,1000z"/>
	<path style="fill-rule:evenodd;clip-rule:evenodd;fill:#F0A11F;" d="M2782.2,1145.6c247.5,195.1,406.3,497.6,406.3,837.2
		c0,588.6-477.1,1065.8-1065.7,1065.8c-339.5,0-641.9-158.8-837.1-406.1c181.4,143.1,410.5,228.5,659.5,228.5
		c588.6,0,1065.7-477.1,1065.7-1065.7C3010.8,1556.2,2925.4,1327.1,2782.2,1145.6z"/>
</g>
</svg>
